<?xml version="1.0" standalone="no"?>
<!DOCTYPE svg PUBLIC "-//W3C//DTD SVG 20010904//EN"
 "http://www.w3.org/TR/2001/REC-SVG-20010904/DTD/svg10.dtd">
<svg version="1.0" xmlns="http://www.w3.org/2000/svg"
 width="260.000000pt" height="260.000000pt" viewBox="0 0 260.000000 260.000000"
 preserveAspectRatio="xMidYMid meet">
<metadata>
Created by potrace 1.14, written by Peter Selinger 2001-2017
</metadata>
<g transform="translate(0.000000,260.000000) scale(0.100000,-0.100000)"
fill="#000000" stroke="none">
<path d="M160 2050 l0 -380 70 0 70 0 2 308 3 307 323 3 322 2 0 70 0 70 -395
0 -395 0 0 -380z"/>
<path d="M1660 2360 l0 -70 323 -2 322 -3 3 -307 2 -308 70 0 70 0 0 380 0
380 -395 0 -395 0 0 -70z"/>
<path d="M679 1603 c-6 -15 -60 -158 -119 -318 -60 -159 -113 -302 -119 -317
l-11 -28 110 0 109 0 16 55 16 56 121 -3 121 -3 17 -50 17 -50 111 -3 c62 -1
112 -1 112 0 0 2 -58 156 -129 343 l-128 340 -117 3 -116 3 -11 -28z m174
-320 l25 -83 -74 0 c-41 0 -74 3 -74 6 0 7 58 200 67 224 4 10 10 1 18 -25 7
-22 24 -77 38 -122z"/>
<path d="M1250 1285 l0 -345 105 0 105 0 0 130 0 130 88 0 c118 0 180 19 225
69 103 114 58 312 -78 350 -23 6 -126 11 -242 11 l-203 0 0 -345z m344 184
c19 -15 26 -30 26 -53 0 -48 -29 -69 -100 -74 l-60 -4 0 76 0 76 54 0 c39 0
60 -6 80 -21z"/>
<path d="M1950 1285 l0 -345 105 0 105 0 0 345 0 345 -105 0 -105 0 0 -345z"/>
<path d="M160 535 l0 -385 395 0 395 0 0 70 0 70 -322 2 -323 3 -3 313 -2 312
-70 0 -70 0 0 -385z"/>
<path d="M2308 608 l-3 -313 -322 -3 -323 -2 0 -70 0 -70 395 0 395 0 0 385 0
385 -70 0 -70 0 -2 -312z"/>
</g>
</svg>
